<?xml version="1.0" encoding="utf-8"?>
<!-- Generator: Adobe Illustrator 27.7.0, SVG Export Plug-In . SVG Version: 6.00 Build 0)  -->
<svg version="1.1" id="Camada_1" xmlns="http://www.w3.org/2000/svg" xmlns:xlink="http://www.w3.org/1999/xlink" x="0px" y="0px"
	 viewBox="0 0 1080 352.2" style="enable-background:new 0 0 1080 352.2;" xml:space="preserve">
<style type="text/css">
	.st0{fill:#FFFFFF;}
</style>
<g id="logo" transform="translate(-11.187367,-19.190064)">
	<path id="path248" class="st0" d="M542.1,272.7c-11.3-1.5-37.9-6.9-38.9-7.8c-1.3-1.3,2.7-0.9,16.4,1.8c15.9,3.1,30.1,6.2,30.5,6.6
		C550.5,273.7,547.9,273.5,542.1,272.7L542.1,272.7z M89.9,269.7c0-1,19-11.9,30.9-17.7c9.3-4.5,12-5.1,12.3-3
		c0.1,0.9,0.4,1.1,1,0.8c6.1-2.5,12.8-4.7,18.1-6.1l6.6-1.6l0.9-3c1.7-5.6,9.1-29.9,10.3-33.8c0.6-2.1,3-9.9,5.2-17.3
		c2.3-7.4,5.3-17.6,6.9-22.6c1.5-5,4-13,5.4-17.8c10.4-34.2,11.3-37.1,10.7-38c-0.4-0.7-0.3-1,0.8-1.8c1.3-0.8,1.4-0.8,2.8,0
		c1.3,0.8,3.3,0.9,15.1,0.9c7.5,0,19.9-0.4,27.7-0.8c11.3-0.7,14.3-0.7,14.9-0.2c1.1,0.9,1,1.4-1,3.6c-1,1.1-1.8,2.4-1.9,2.9
		c0,0.5-0.2,0-0.4-1.1l-0.3-2l-24.9-0.4c-13.7-0.2-25.8-0.3-27-0.1c-3.6,0.5-3.1-0.5-9.6,20.6c-1.9,6.3-7.9,25.5-10.8,35
		c-2.5,8.1-2.5,8.3-0.8,14.6c3.6,12.8,5.1,18.6,5.1,18.9c0,0.3-0.8-1.8-6.2-16.2c-1.5-4-2.5-5.2-2.5-3.1c0,1.2,10.4,31.1,10.8,31.1
		c0.2,0,0.5-0.7,0.7-1.6c0.2-0.9,4.2-17.1,8.9-36s8.5-35,8.5-35.7c-0.1-1.6-0.4-1.7-2.1-0.6c-0.7,0.4-1.5,0.7-1.8,0.5
		c-0.9-0.6-0.6-2.2,0.5-2.6c0.6-0.2,13.6-0.2,29,0c20.3,0.2,28.2,0.2,29-0.2c0.8-0.4,1.4-0.4,2.8,0.2c2.2,1.1,8.8,1.1,10.2,0.1
		c1.3-1,2.6-1,3,0c0.2,0.6,1.3,0.8,5.6,0.8c4.6,0,5.4-0.1,6.2-1c1.2-1.3,2.1-1.3,2.8,0c0.5,0.9,1.1,1,5.2,1c4.1,0,4.8-0.1,5.3-1
		c0.9-1.4,2.6-1.3,3.2,0.3c0.5,1.2,0.7,1.3,4.6,1.3c3.1,0,4.1-0.2,4.1-0.7c0-0.4,0.5-1.1,1.1-1.6c1-0.9,1.1-0.9,2,0.2
		c0.5,0.6,1,1.4,1.1,1.6c0.1,0.3,2,0.5,4.2,0.6l4,0.1l0.7-1.6c0.9-2,2.2-2.1,2.9-0.1l0.6,1.5h4.7c4.3,0,4.7-0.1,4.7-1
		c0-1.2,1.3-2.3,2.3-1.9c0.4,0.2,0.9,1,1.1,1.8l0.3,1.5h4.8h4.8l0.4-1.7c0.3-1.3,0.7-1.7,1.7-1.7c1,0,1.3,0.4,1.7,1.7l0.5,1.7h4.1
		h4.1l0.5-1.7c0.4-1.3,0.7-1.7,1.7-1.7c1,0,1.4,0.4,1.7,1.7l0.5,1.7h4h4v-1.5c0-2.8,3.1-2.6,3.5,0.2c0.1,1.2,0.4,1.3,2.8,1.6
		c1.5,0.2,3.8,0.3,5.2,0.2c2.5-0.2,2.5-0.2,2.8-1.9c0.2-1.5,0.5-1.8,1.5-1.8c1,0,1.4,0.3,1.7,1.9l0.5,1.9h4.7c4.6,0,4.7,0,4.7-1.2
		c0-0.6,0.3-1.6,0.7-2.2c1-1.3,2.4-0.5,3.1,1.7l0.5,1.6h4.2c4.1,0,4.2,0,4.2-1.2c0-1.2,1.2-2.8,2-2.8c0.6,0,1.4,1.1,1.7,2.7l0.3,1.4
		h4.7h4.7l0.5-1.7c0.7-2.5,2.5-2.5,3.3-0.2l0.6,1.8h5.5h5.5l0.2-1.4c0.2-1.9,2.4-2,3.3-0.1c0.6,1.2,0.9,1.3,6.1,1.5
		c5.8,0.3,6.8,0.2,6.8-0.6c0-0.7-6.2-14.3-6.8-15c-0.8-0.9-100.1-2.3-179-2.6c-58.9-0.2-65.1-0.2-66.2,0.6c-0.7,0.4-1.6,0.8-2,0.8
		c-0.4,0-1.2,1.2-1.8,2.7c-0.6,1.5-0.9,2-0.8,1.2c0.2-0.8,0.4-2.1,0.6-2.9c0.2-1,0-1.8-0.6-2.5c-0.8-0.9-0.9-1.1,0-2.3
		c0.8-1.2,1.1-1.3,2.7-1c4.7,0.9,50.1,1.1,145.1,0.9l103-0.3l1,1.1c0.8,0.9,0.9,1.3,0.4,2.4c-0.5,1.1-0.2,2.3,2.1,8.8
		c2.1,5.9,2.9,7.5,3.7,7.7c2.3,0.4,1.6,2.7-1.1,3.3c-0.7,0.2-1.2,0.5-1.2,0.7c0,0.6,1.6,5.5,4.7,14.1c1.5,4.2,3.4,10.1,4.1,13
		c2.3,9,3.9,13.2,4.9,13.5c0.8,0.2,1,0.7,1,3.2c0,2.5-0.2,3.1-1.1,3.6c-0.8,0.5-1.2,0.4-1.5-0.1c-0.6-0.9-0.6-4.4,0-5.5
		c0.3-0.6-0.3-3-2.2-8.5c-3.3-9.4-5-13.3-9.6-22.6l-3.7-7.4l-3.5-0.2c-3.4-0.1-3.5-0.1-3.2,1c0.2,0.6,1.9,9.5,3.9,19.7
		c5.3,27.1,6,30.6,6.3,30.9c0.2,0.2,3.1,0.5,6.5,0.7c6,0.4,21.1,2.5,25.8,3.5c1.6,0.3-0.6,0.4-7.1,0.2l-9.4-0.3l-3.1,2.7
		c-4.7,4-8.3,8.5-8.3,10.3c0,0.8,0.7,5.7,1.5,10.7c1.7,9.8,1.8,12.4,0.3,6.7c-0.5-1.9-1.2-4.5-1.6-5.8c-0.4-1.3-1.2-4-1.8-6
		c-0.7-2.4-1.3-3.6-1.6-3.3c-0.4,0.4,0.9,10.5,2.4,17.8c0.2,1,0.1,1.7-0.2,1.7c-0.3,0-0.8-1.2-1.1-2.7c-0.8-4-3.2-14.3-3.4-15.1
		c-0.2-0.5-1.3,0.3-3.6,2.6c-6.5,6.3-14.4,13.3-14.7,13c-0.2-0.2,3.5-4.2,8-9c9.6-10.2,10-10.7,8.6-12.2c-1.2-1.2-1.3-2-0.3-2
		c0.4,0,1.1-0.1,1.6-0.3c0.6-0.2,0.9,0,1.1,0.8c0.2,0.6,0.5,1.1,0.7,1.1c0.2,0,0.2-0.8-0.1-1.8c-0.8-2.8,0.8-4.2,2.6-2.5
		c0.8,0.7,1.1,0.5,3.8-2.8c1.6-2,2.8-3.7,2.7-3.8c-0.1-0.1-5.9-0.5-12.9-1c-7-0.5-17.3-1.2-22.9-1.6c-5.6-0.4-13-0.7-16.5-0.7
		c-4.2,0-6.2-0.2-5.8-0.5c0.6-0.6,35.9-0.8,42.8-0.3l4.7,0.4l-0.4-2c-0.4-2-1-4.3-3.7-13.2c-0.9-2.8-3.2-12.2-5.1-20.8
		c-1.9-8.6-3.7-15.9-4-16.2c-0.2-0.2-3-0.4-6-0.3l-5.6,0.1l1.2,8.4c4.7,33.1,5.7,41.2,4.8,38.7c-2.9-8.5-3.3-10.2-6.8-31.3
		l-2.6-15.8l-5-0.4c-2.7-0.2-5.1-0.3-5.2-0.2c-0.3,0.3,0.3,6,3.6,36.7c0.7,6.7,1.2,12.2,1.1,12.3c-0.1,0.1-0.5-0.9-0.9-2.2
		s-1.1-3.9-1.6-5.7c-0.5-1.8-2-11-3.3-20.3c-1.3-9.4-2.4-17.9-2.6-19l-0.3-1.9l-4.6,0.1l-4.6,0.1l0.1,1.5c0.1,0.8,0.4,4.7,0.6,8.6
		c0.3,3.9,1.1,14.3,1.8,23.1s1.2,16.1,1.1,16.2c-0.1,0.1-0.9-2.8-1.8-6.4c-1.2-4.9-2-10.3-3.2-21.8c-0.9-8.4-1.7-16.7-1.9-18.5
		l-0.3-3.3H403h-5.1l0.1,2.8c0.1,3,1,19.1,1.6,29.1c0.2,3.3,0.2,5.8,0,5.6c-0.4-0.4-3.7-22.9-4.6-31.5l-0.6-6l-5.5-0.1l-5.5-0.1
		l0.3,10.1c0.2,5.5,0.4,14.2,0.6,19.2c0.5,14.5-0.4,11-2.6-10.7c-0.4-4.2-1-10-1.3-13c-0.3-2.9-0.7-5.4-0.8-5.6
		c-0.1-0.1-1.9-0.3-4-0.4l-3.7-0.2l-0.3,1.7c-0.2,0.9-0.2,9.8-0.2,19.8l0.1,18.1l16.8,0.3c10.7,0.2,17.1,0.2,17.7-0.2
		c2.4-1.3,4.3,1.3,2.4,3.3l-1.1,1.2l3.7,6c2,3.3,3.7,6.3,3.7,6.6c0,0.8-7.9,12.3-8.8,12.7c-1.6,0.7-1-0.5,3-5.9
		c2.3-3.1,4.1-5.7,4-5.8c-0.1-0.1-23.9-0.3-52.9-0.5c-39.7-0.3-52.8-0.2-53.1,0.2c-0.2,0.3,1.6,3.2,4.3,6.8c2.6,3.4,4.9,6.7,5.1,7.4
		c0.4,1.1,0.4,1.2-0.8,1c-0.7-0.1-1.4,0-1.5,0.3c-0.3,0.9-2.1-1.6-4.7-6.6c-3.6-6.8-4.3-7.9-5.6-8.2c-1.7-0.4-1.7-3,0-4.7
		c1.5-1.5,5.3-10.1,5.8-13l0.4-2l8.1,0.2l8.1,0.2l-0.3-7.6c-0.3-5.9-0.1-9.7,0.7-17.5c0.6-5.5,1-11,1-12.3l0-2.4h-4.3h-4.3l-0.3,2.7
		c-0.2,1.5-1.1,8.6-2.1,15.9l-1.7,13.2l0.3-15.9l0.3-15.9H311c-4.9,0-4.6-0.3-5.4,5.1c-0.3,1.8-1.4,9.4-2.6,16.8
		c-2.1,13.6-2.4,15.6-3.8,24.4c-0.4,2.7-1,6.5-1.4,8.6c-0.3,2.1-0.9,5.6-1.3,7.8c-1.5,8.6-1.8,8.3,11.8,13.8
		c3.9,1.6,7.4,3.2,7.7,3.5c0.3,0.3,1.4,2.2,2.5,4.3c1.9,3.7,1.9,3.7,4,3.7c1.2,0,17.3,0.2,35.9,0.5c18.6,0.3,34.2,0.4,34.6,0.2
		c0.4-0.1,1.3-1,2-1.9l1.2-1.6l-0.3,2.2c-0.3,2-0.2,2.2,0.8,2.2c4.8,0,43.6,3.4,45.5,4c1.7,0.5,0.6,1.7-2,2.1c-1.9,0.3-2,0.4-1,0.7
		c0.8,0.3,1.1,0.6,0.9,1.3c-0.2,0.8,0.2,1.1,2.4,1.7c4.4,1.3,26.9,6.8,26.9,6.6c0-0.1-0.4-1.7-0.8-3.6c-0.7-3.1-0.7-3.5,0-4.6
		c0.9-1.4,2.8-1.6,3.9-0.3c0.4,0.5,1.3,3.1,2,5.7l1.2,4.8l2.5,0.9c1.4,0.5,6.9,2.4,12.2,4.2c10.8,3.8,26.6,9.7,27.7,10.5
		c0.6,0.4,0.6,0.4-0.2,0.2c-3.2-1-35.7-5.9-39.3-5.9c-1,0-1.2,0.2-1.2,2.1c0,3.6-2.9,3.2-4-0.5c-0.3-1.2-0.9-2.2-1.2-2.3
		c-0.6-0.2-18.3-1.8-31.1-2.8c-12.2-1-49.6-2.6-73-3.1c-25.8-0.6-104-0.3-132,0.5c-37.8,1.1-66.7,2.3-94.9,3.8l-12,0.6l-7.2,3.2
		c-6.6,2.9-8.8,3.4-8.8,2.2c0-0.3,2.9-2.5,6.5-4.9c3.6-2.5,6.6-4.6,6.7-4.6c0.1-0.1,0.1-0.3-0.1-0.4c-0.3-0.3-6.7,2.8-22.8,11.2
		C93.7,268.8,89.9,270.5,89.9,269.7L89.9,269.7z M273.2,240.6c0.1-0.5,0.8-4.6,1.5-9c0.7-4.5,2-12.6,2.9-18.1
		c2.3-14.1,2.5-12.6-2.1-14.6c-2.8-1.2-4.6-1.7-6.7-1.7c-2.8,0-2.9,0.1-3.2,1.4c-0.2,0.8-0.4,1.9-0.5,2.4c-0.1,0.6-1.7,7.9-3.5,16.3
		c-1.8,8.4-3.7,17.1-4.2,19.4c-0.5,2.3-0.8,4.3-0.7,4.5c0.1,0.1,3.9,0.3,8.3,0.3C272.1,241.5,272.9,241.4,273.2,240.6L273.2,240.6z
		 M209.4,239.5c0.2-0.7,1.4-5.6,2.7-10.9c1.3-5.3,3.2-13.5,4.4-18.1c1.1-4.7,2.1-8.8,2.1-9.2c0-0.5-1.1-0.6-5.7-0.4l-5.7,0.3
		l-0.9,3.3c-0.5,1.8-2.3,8.6-4,15c-1.7,6.4-3.6,13.3-4.1,15.3c-0.5,2-1.1,4.1-1.3,4.7c-0.3,1.1-0.2,1.1,4.6,1.3
		C209.1,240.9,209,240.9,209.4,239.5L209.4,239.5z M223.6,239.9c0.3-0.6,1.3-4.7,2.3-9c1-4.3,2.3-9.6,2.8-11.7
		c0.5-2.1,1.7-6.9,2.5-10.7s1.7-7.3,1.8-7.8c0.3-0.9-0.1-0.9-5.7-0.6c-3.3,0.2-6.2,0.5-6.4,0.7c-0.4,0.3-1.3,3.8-5.8,20.9
		c-3.4,12.9-4.7,18.7-4.4,19.1c0.2,0.2,3,0.3,6.3,0.3C222.9,241,223.2,240.9,223.6,239.9L223.6,239.9z M240.9,238.1
		c0.3-1.6,1.4-6.8,2.4-11.6c1-4.8,2.4-11.4,3.1-14.8c0.7-3.4,1.6-7.6,2-9.4c0.4-1.8,0.6-3.4,0.5-3.6c-0.2-0.4-12.8,0.7-13.2,1.1
		c-0.2,0.2-1.2,3.6-2.3,7.6c-1.1,4-2.7,10-3.6,13.4c-0.9,3.4-2.1,7.8-2.6,9.9s-1.3,4.9-1.7,6.3c-1.2,4.1-1.6,3.8,7.1,3.8h7.8
		L240.9,238.1z M255.9,238.6c0.2-1.3,0.9-5.2,1.6-8.5c0.7-3.4,2-10.5,3-15.8c1.6-8.5,2.1-10.9,3.1-16l0.3-1.2l-4.7,0.3
		c-8.6,0.6-7.8,0.1-9.3,6.6c-4.5,19.3-8.1,34.3-8.3,35.6l-0.2,1.4h7.1h7.1L255.9,238.6z M195.9,239.6c0.3-0.8,1.3-5.2,6-24.8
		c1.1-4.8,2.4-9.8,2.8-11.3c0.4-1.4,0.7-2.8,0.7-3c0-0.4-9.7,0.1-10,0.5c-0.2,0.2-4.5,15-5.7,19.5c-0.3,1.2-0.8,2.1-1,1.9
		c-0.4-0.2-4,12-4.9,16.4l-0.3,1.7h6.1C194.9,240.5,195.6,240.4,195.9,239.6L195.9,239.6z M287.9,233.1c2.2-0.6,3-1.1,3.2-1.9
		c0.2-1.1,0.8-5.3,1.8-14.1c0.3-2.4,0.6-4.8,0.8-5.4c0.2-0.9-0.3-1.6-2.7-3.5c-4.6-3.7-9-6.5-9.3-6c-0.2,0.2-0.7,2.5-1.2,5
		c-2,11.3-4.5,24.2-5.2,27.6c-0.4,2-0.8,3.9-0.8,4.2c0,0.3,2.3-0.8,5.2-2.3C282.6,235.2,286.2,233.6,287.9,233.1L287.9,233.1z
		 M437.8,236.4c0-0.3-0.3-0.5-0.7-0.5c-0.4,0-1.4-0.1-2.3-0.3c-1-0.2-1.6-0.1-1.6,0.2c0,0.5,1.2,0.8,3.7,1
		C437.4,236.9,437.8,236.7,437.8,236.4L437.8,236.4z M304.9,230.4c-0.1-1.9-0.8-4.2-1.9-6.5l-1.7-3.6l-0.4,1.8
		c-0.2,1-0.6,3.6-0.8,5.9l-0.3,4.1l1.7,0.5C305,233.8,305.2,233.7,304.9,230.4L304.9,230.4z M391.2,232.1c0.5-0.7,0.8-1.3,0.8-1.4
		c0-0.1-5.5-0.2-12.3-0.3c-6.7-0.1-22.6-0.3-35.2-0.5c-12.6-0.2-23-0.3-23.2-0.2c-0.1,0.1-0.1,0.3,0,0.4c0.1,0.1,13.6,0.5,30,0.8
		c16.4,0.3,29.9,0.7,30,0.9c0.3,0.3-36.6-0.2-50.2-0.6c-7.8-0.3-8.8-0.2-8.8,0.5c0,0.4,0.1,0.8,0.1,0.8c0.1,0,9.6,0.2,21.2,0.3
		c11.6,0.2,21.2,0.4,21.3,0.5s5.9,0.2,12.8,0.2h12.6L391.2,232.1z M299.1,226.4c0.2-3,0.5-6.2,0.6-7c0.2-1.3-0.1-2-1.8-4.2
		c-2.4-3-3.1-3.3-3.1-1.2c0,0.8-0.6,4.8-1.3,9c-0.7,4.2-1.3,7.9-1.3,8.2c0,0.4,1,0.6,3.2,0.6h3.2L299.1,226.4z M294.5,205.5
		c0.5-4.5,1.2-10.1,2.6-20.7c1-7.8,3.5-27.1,5.1-39.7c0.1-1.1,0.4-2.7,0.5-3.4l0.2-1.4h-5h-5l-0.3,1.4c-0.1,0.8-0.7,3.8-1.3,6.7
		c-0.5,2.9-1.6,8.5-2.3,12.5c-0.7,3.9-2.1,11.5-3.1,16.8c-2.1,11.5-2.6,14.2-3.1,16.5l-0.3,1.7l4.1-0.2c3-0.1,4.3-0.4,5.1-1.1
		c0.7-0.6,1.4-0.8,2.1-0.6c1.5,0.5,1.3,2.1-0.4,3c-1.3,0.7-1.5,0.7-2.2,0c-0.6-0.6-1.6-0.7-4.9-0.4c-3.5,0.3-4.2,0.5-4.2,1.2
		c0,0.5-0.1,1.2-0.3,1.6c-0.2,0.5,1.2,1.6,4.2,3.6c2.5,1.6,5.2,3.4,6,4.1c0.8,0.7,1.7,1.3,1.8,1.3
		C294.1,208.4,294.3,207.1,294.5,205.5L294.5,205.5z M205.4,198.4c0.6-0.6,6.6-24.2,9.1-35.7c0.2-1,1.4-6.3,2.7-11.9
		c1.3-5.6,2.3-10.5,2.3-11.1c0-1.5-3.3-1.3-4.8,0.3c-0.6,0.7-1.5,1.3-1.9,1.3c-0.5,0-3.1,8.4-8.8,28.4c-4.4,15.6-8.2,28.7-8.3,29.1
		c-0.2,0.6,0.6,0.7,4.4,0.5C202.7,199.1,205.1,198.7,205.4,198.4L205.4,198.4z M280.1,197.7c0-0.8-0.4-1-2.3-1
		c-2.8,0-2.9,0.6-0.4,1.6C279.6,199.2,280.1,199.1,280.1,197.7z M215.3,197.9l4.2-0.3l0.6-2.1c0.6-2.2,3.3-13.5,7.7-31.6
		c1.5-6.2,3.4-14.2,4.3-17.8l1.6-6.6l-4.8-0.1c-2.6-0.1-4.9-0.1-5,0c-0.2,0.2-1.4,4.7-10.4,38.3c-2,7.6-4.1,15.3-4.6,17.2l-0.9,3.4
		l1.6,0C210.5,198.3,213,198.1,215.3,197.9L215.3,197.9z M411,194.3c-3.5-6.4-4.6-7.9-5.2-8.1c-1-0.3-0.7,0.5,1.7,5
		c1.3,2.3,2.3,4.4,2.3,4.5c0,0.2-3.8,0.2-8.5,0.1c-61.9-1.2-92.7-2-93-2.3c-0.2-0.2,0.6-2.8,1.8-5.8c1.9-4.9,2.3-6.8,1.2-5.5
		c-0.5,0.6-5.7,12.8-5.7,13.4c0,0.3,0.6,0.6,1.4,0.8c1.3,0.4,45.8,0.9,88,1.2l18,0.1L411,194.3z M234,196.2c0.3-0.3,0.1-0.5-0.5-0.5
		c-1,0-1,0,0-0.5c1-0.5,1.3-1.4,6.6-23.5c4.9-20.4,7.3-30.3,7.7-31.5c0.3-0.8-0.2-0.9-5.1-0.9h-5.3l-0.5,1.7
		c-0.3,0.9-1.2,4.4-2.1,7.8c-0.9,3.4-2.4,8.9-3.3,12.2c-0.9,3.4-2.3,8.4-3,11.2c-0.7,2.8-2.5,9.3-3.9,14.5
		c-1.4,5.2-2.5,9.7-2.5,10.1c0,0.6,1,0.7,5.7,0.4C231,196.8,233.8,196.5,234,196.2L234,196.2z M244,196.2h5.6v-1.3v-1.3l-6,0.4
		c-3.3,0.2-6.1,0.5-6.4,0.6c-0.2,0.1-0.4,0.7-0.4,1.3c0,0.7,0.2,1,0.8,0.7C238.1,196.4,241,196.2,244,196.2L244,196.2z M262.3,195.3
		c0-0.5-9-1.8-9.7-1.3c-0.3,0.2-0.5,0.6-0.5,1c0,0.6,1,0.7,5.1,0.7C260,195.7,262.3,195.5,262.3,195.3L262.3,195.3z M280.3,195.3
		c0.3-0.4,0.8-3.5,5.4-32.2c0.6-3.5,1.6-10,2.3-14.3c0.7-4.4,1.3-8.1,1.3-8.3c0-0.2-2.5-0.3-5.5-0.3h-5.5l-0.6,2.9
		c-0.3,1.6-1.2,5.6-1.9,8.8c-0.7,3.2-3.1,14.1-5.3,24.2s-3.9,18.4-3.8,18.5C267.5,195.5,279.8,196.2,280.3,195.3z M245.8,193
		l4.6-0.6l1.9-9.2c1-5,2.7-13,3.7-17.8c3.7-17.9,4.8-22.9,5.1-24.2l0.3-1.3l-4.7-0.4c-3.4-0.3-4.8-0.2-5.1,0.2
		c-0.2,0.3-1.5,4.8-2.8,9.8c-1.3,5.1-3.1,12-4.1,15.3c-0.9,3.4-2.3,8.5-3.1,11.4c-0.8,2.9-2.1,8-3.1,11.3l-1.7,6l2.1,0
		C240.2,193.6,243.2,193.3,245.8,193L245.8,193z M264.5,192.8c0.1-0.5,1.1-5.1,2-10.3c1-5.2,3.2-16.6,4.8-25.3
		c1.7-8.7,3.1-16.2,3.1-16.7c0-0.6-0.9-0.8-4.8-0.8h-4.8l-0.5,1.9c-0.3,1-1.7,7.1-3.1,13.4c-1.5,6.3-4,17.3-5.7,24.3
		s-2.9,13-2.8,13.1c0.3,0.3,6.9,1.1,9.4,1.2C263.8,193.7,264.3,193.5,264.5,192.8L264.5,192.8z M404.7,184c0-0.6-0.3-1-0.8-1
		c-0.6,0-0.7,0.2-0.2,1c0.3,0.6,0.7,1,0.8,1C404.6,185,404.7,184.6,404.7,184z M356.4,179.6c0-0.8-0.2-6.1-0.5-11.8
		c-0.3-5.7-0.6-14-0.8-18.4l-0.3-8h-5c-2.8,0-5,0.2-5,0.5c0,0.3-0.2,3.4-0.5,7s-0.9,11-1.3,16.4c-0.4,5.5-0.9,11.1-1,12.5
		c-0.1,1.4-0.1,2.8,0.1,2.9c0.2,0.2,3.5,0.3,7.3,0.3h7L356.4,179.6L356.4,179.6z M369.5,170.4c-0.5-5.8-1.1-14.6-1.3-19.5l-0.4-8.9
		l-4.6-0.1l-4.6-0.1l-0.3,7.8c-0.2,4.3-0.5,13.1-0.7,19.6l-0.3,11.8h6.6h6.6L369.5,170.4z M340.9,160.9l0-19.6l-4.7,0
		c-3.3,0-4.8,0.2-4.9,0.6c-0.1,0.3-0.4,2.7-0.7,5.2c-0.3,2.5-1.3,10.9-2.3,18.7c-1,7.8-1.8,14.2-1.8,14.4c0,0.1,3.3,0.3,7.3,0.3h7.3
		L340.9,160.9L340.9,160.9z M288.7,137.7c-0.9-0.5-3.5-0.6-6.8-0.2c-4,0.5-2.6,1,2.6,0.8C287.7,138.2,289.2,138,288.7,137.7
		L288.7,137.7z M327.4,138.4c0-0.2-1.2-0.3-2.7-0.2c-4.5,0.2-4.9,0.5-1,0.5C325.7,138.7,327.4,138.6,327.4,138.4z M248.4,137.6
		c-0.2-0.5-1.7-0.6-5.2-0.6c-3.5,0-5.1,0.2-5.2,0.6c-0.2,0.5,1.1,0.6,5.2,0.6C247.3,138.2,248.6,138.1,248.4,137.6z M261.5,137.7
		c0.2-0.3-1.4-0.5-4.3-0.5c-2.7,0-4.6,0.2-4.6,0.5c0,0.3,1.8,0.5,4.3,0.5C259.3,138.2,261.4,138,261.5,137.7z M275,137.7
		c0-0.3-1.9-0.5-4.5-0.5c-2.5,0-4.7,0.2-4.9,0.5c-0.2,0.3,1.4,0.5,4.5,0.5C273.1,138.2,275,138,275,137.7z M300.8,137.9
		c-1.3-0.1-3.6-0.1-5.1,0c-1.5,0.1-0.4,0.2,2.4,0.2C301,138.1,302.2,138,300.8,137.9L300.8,137.9z M313.6,137.9
		c-1-0.1-2.9-0.1-4.1,0c-1.2,0.1-0.3,0.2,1.9,0.2C313.6,138.1,314.6,138,313.6,137.9L313.6,137.9z M220.3,137.2
		c0.2-0.3-0.7-0.5-2.3-0.5s-2.5,0.2-2.3,0.5c0.2,0.3,1.2,0.5,2.3,0.5C219.1,137.7,220.2,137.5,220.3,137.2z M233.8,137.2
		c0-0.3-1.9-0.5-4.6-0.5s-4.6,0.2-4.6,0.5c0,0.3,1.9,0.5,4.6,0.5C231.9,137.7,233.8,137.5,233.8,137.2z M342.8,226.9
		c3.6-0.1,9.3-0.1,12.7,0c3.4,0.1,0.5,0.2-6.5,0.2C342,227,339.2,227,342.8,226.9L342.8,226.9z M314.3,174.6c0-0.8,0.1-1.1,0.3-0.6
		c0.1,0.5,0.1,1.2,0,1.5C314.4,175.9,314.3,175.5,314.3,174.6L314.3,174.6z M206.3,132.1c0-0.3,0.2-0.5,0.5-0.5s0.4,0.2,0.2,0.5
		c-0.2,0.3-0.4,0.5-0.5,0.5C206.4,132.7,206.3,132.4,206.3,132.1z"/>
</g>
<g id="nome">
	<g>
		<path class="st0" d="M542.1,151.4h-5.2l-2.1-5.8h-9.4l-1.9,5.8h-5l9.2-25.5h5L542.1,151.4z M533.4,141.4l-3.2-9.5l-3.2,9.5H533.4z
			"/>
		<path class="st0" d="M543.4,143.1l4.6-0.5c0.3,1.7,0.8,2.9,1.7,3.7c0.9,0.8,2,1.2,3.4,1.2c1.5,0,2.7-0.4,3.5-1.1s1.2-1.5,1.2-2.5
			c0-0.6-0.2-1.1-0.5-1.5c-0.3-0.4-0.9-0.8-1.7-1.1c-0.6-0.2-1.8-0.6-3.8-1.1c-2.5-0.7-4.3-1.5-5.4-2.5c-1.4-1.4-2.2-3.1-2.2-5.1
			c0-1.3,0.3-2.5,1-3.6c0.7-1.1,1.7-2,2.9-2.6s2.8-0.9,4.6-0.9c3,0,5.2,0.7,6.7,2.1c1.5,1.4,2.3,3.3,2.3,5.6l-4.7,0.2
			c-0.2-1.3-0.6-2.3-1.3-2.8s-1.7-0.9-3-0.9c-1.4,0-2.5,0.3-3.2,0.9c-0.5,0.4-0.8,0.9-0.8,1.6c0,0.6,0.2,1.1,0.7,1.5
			c0.6,0.5,2.1,1.1,4.4,1.7c2.3,0.6,4,1.2,5.1,1.8c1.1,0.6,2,1.5,2.6,2.6s0.9,2.4,0.9,4.1c0,1.5-0.4,2.8-1.1,4.1
			c-0.7,1.3-1.8,2.2-3.2,2.8c-1.4,0.6-3.1,0.9-5.1,0.9c-3,0-5.3-0.7-6.8-2.2C544.7,148.2,543.7,146,543.4,143.1z"/>
		<path class="st0" d="M565.3,143.1l4.6-0.5c0.3,1.7,0.8,2.9,1.7,3.7c0.9,0.8,2,1.2,3.4,1.2c1.5,0,2.7-0.4,3.5-1.1s1.2-1.5,1.2-2.5
			c0-0.6-0.2-1.1-0.5-1.5c-0.3-0.4-0.9-0.8-1.7-1.1c-0.6-0.2-1.8-0.6-3.8-1.1c-2.5-0.7-4.3-1.5-5.4-2.5c-1.4-1.4-2.2-3.1-2.2-5.1
			c0-1.3,0.3-2.5,1-3.6c0.7-1.1,1.7-2,2.9-2.6c1.3-0.6,2.8-0.9,4.6-0.9c3,0,5.2,0.7,6.7,2.1c1.5,1.4,2.3,3.3,2.3,5.6l-4.7,0.2
			c-0.2-1.3-0.6-2.3-1.3-2.8s-1.7-0.9-3-0.9c-1.4,0-2.5,0.3-3.2,0.9c-0.5,0.4-0.8,0.9-0.8,1.6c0,0.6,0.2,1.1,0.7,1.5
			c0.6,0.5,2.1,1.1,4.4,1.7c2.3,0.6,4,1.2,5.1,1.8c1.1,0.6,2,1.5,2.6,2.6s0.9,2.4,0.9,4.1c0,1.5-0.4,2.8-1.1,4.1
			c-0.7,1.3-1.8,2.2-3.2,2.8c-1.4,0.6-3.1,0.9-5.1,0.9c-3,0-5.3-0.7-6.9-2.2C566.6,148.2,565.6,146,565.3,143.1z"/>
		<path class="st0" d="M588.5,151.4V126h17.4v4.3h-12.7v5.6H605v4.3h-11.8v6.9h13.1v4.3H588.5z"/>
		<path class="st0" d="M610.3,151.4V126h7.1l4.3,17.4l4.2-17.4h7.1v25.5h-4.4v-20.1l-4.7,20.1h-4.6l-4.7-20.1v20.1H610.3z"/>
		<path class="st0" d="M637.7,126h9.4c1.9,0,3.2,0.1,4.2,0.3c0.9,0.2,1.7,0.5,2.5,1.1c0.7,0.5,1.3,1.2,1.8,2.1
			c0.5,0.9,0.7,1.9,0.7,3c0,1.2-0.3,2.3-0.9,3.3c-0.6,1-1.4,1.7-2.4,2.2c1.4,0.5,2.5,1.2,3.3,2.3c0.8,1.1,1.2,2.4,1.2,3.8
			c0,1.2-0.2,2.3-0.7,3.4s-1.2,2-2,2.6c-0.9,0.7-1.9,1.1-3.2,1.2c-0.8,0.1-2.7,0.2-5.7,0.2h-8V126z M642.5,130.2v5.9h3.1
			c1.8,0,3,0,3.4-0.1c0.8-0.1,1.5-0.4,1.9-0.9c0.5-0.5,0.7-1.2,0.7-2c0-0.8-0.2-1.4-0.6-1.9c-0.4-0.5-1-0.8-1.8-0.9
			c-0.5-0.1-1.8-0.1-4.1-0.1H642.5z M642.5,140.3v6.8h4.4c1.7,0,2.8-0.1,3.3-0.2c0.7-0.1,1.3-0.5,1.7-1c0.4-0.5,0.7-1.3,0.7-2.2
			c0-0.8-0.2-1.4-0.5-1.9c-0.3-0.5-0.8-0.9-1.5-1.2c-0.6-0.2-2.1-0.4-4.2-0.4H642.5z"/>
		<path class="st0" d="M661.6,151.4v-25.3h4.7v21h11.8v4.3H661.6z"/>
		<path class="st0" d="M681.5,151.4V126H699v4.3h-12.7v5.6h11.8v4.3h-11.8v6.9h13.1v4.3H681.5z"/>
		<path class="st0" d="M703.3,151.4V126h4.7v25.5H703.3z"/>
		<path class="st0" d="M733.8,151.4h-5.2l-2.1-5.8h-9.4l-1.9,5.8h-5l9.2-25.5h5L733.8,151.4z M725,141.4l-3.2-9.5l-3.2,9.5H725z"/>
		<path class="st0" d="M744.3,151.4v-25.3h4.7v21h11.8v4.3H744.3z"/>
		<path class="st0" d="M764.3,151.4V126h17.4v4.3H769v5.6h11.8v4.3H769v6.9h13.1v4.3H764.3z"/>
		<path class="st0" d="M797.1,142.1v-4.3h10.2v10.2c-1,1-2.4,2-4.3,2.8c-1.9,0.8-3.8,1.2-5.7,1.2c-2.5,0-4.6-0.6-6.4-1.7
			c-1.8-1.1-3.2-2.7-4.1-4.8c-0.9-2.1-1.4-4.3-1.4-6.8c0-2.7,0.5-5,1.5-7.1c1-2.1,2.5-3.6,4.5-4.7c1.5-0.8,3.4-1.3,5.6-1.3
			c2.9,0,5.2,0.7,6.8,2s2.7,3.2,3.2,5.5l-4.7,1c-0.3-1.3-1-2.2-1.9-3c-0.9-0.7-2.1-1.1-3.4-1.1c-2.1,0-3.7,0.7-4.9,2.1
			s-1.8,3.5-1.8,6.3c0,3,0.6,5.3,1.9,6.8c1.2,1.5,2.9,2.3,4.9,2.3c1,0,2-0.2,3-0.6c1-0.4,1.9-0.9,2.6-1.5v-3.2H797.1z"/>
		<path class="st0" d="M811.6,151.4V126h4.7v25.5H811.6z"/>
		<path class="st0" d="M819.7,143.1l4.6-0.5c0.3,1.7,0.8,2.9,1.7,3.7c0.9,0.8,2,1.2,3.4,1.2c1.5,0,2.7-0.4,3.5-1.1s1.2-1.5,1.2-2.5
			c0-0.6-0.2-1.1-0.5-1.5c-0.3-0.4-0.9-0.8-1.7-1.1c-0.6-0.2-1.8-0.6-3.8-1.1c-2.5-0.7-4.3-1.5-5.4-2.5c-1.4-1.4-2.2-3.1-2.2-5.1
			c0-1.3,0.3-2.5,1-3.6c0.7-1.1,1.7-2,2.9-2.6c1.3-0.6,2.8-0.9,4.6-0.9c3,0,5.2,0.7,6.7,2.1c1.5,1.4,2.3,3.3,2.3,5.6l-4.7,0.2
			c-0.2-1.3-0.6-2.3-1.3-2.8s-1.7-0.9-3-0.9c-1.4,0-2.5,0.3-3.2,0.9c-0.5,0.4-0.8,0.9-0.8,1.6c0,0.6,0.2,1.1,0.7,1.5
			c0.6,0.5,2.1,1.1,4.4,1.7c2.3,0.6,4,1.2,5.1,1.8c1.1,0.6,2,1.5,2.6,2.6s0.9,2.4,0.9,4.1c0,1.5-0.4,2.8-1.1,4.1
			c-0.7,1.3-1.8,2.2-3.2,2.8c-1.4,0.6-3.1,0.9-5.1,0.9c-3,0-5.3-0.7-6.9-2.2C820.9,148.2,820,146,819.7,143.1z"/>
		<path class="st0" d="M842.9,151.4v-25.3h4.7v21h11.8v4.3H842.9z"/>
		<path class="st0" d="M884.1,151.4h-5.2l-2.1-5.8h-9.4l-1.9,5.8h-5l9.2-25.5h5L884.1,151.4z M875.3,141.4l-3.2-9.5l-3.2,9.5H875.3z
			"/>
		<path class="st0" d="M889.4,151.4v-21.2h-7V126h18.7v4.3h-7v21.2H889.4z"/>
		<path class="st0" d="M904.1,151.4V126h4.7v25.5H904.1z"/>
		<path class="st0" d="M919.3,151.4l-8.4-25.5h5.1l6,18.9l5.8-18.9h5l-8.4,25.5H919.3z"/>
		<path class="st0" d="M954,151.4h-5.2l-2.1-5.8h-9.4l-1.9,5.8h-5l9.2-25.5h5L954,151.4z M945.3,141.4l-3.2-9.5l-3.2,9.5H945.3z"/>
	</g>
	<g>
		<path class="st0" d="M518.5,194.6v-31h10.2c2.5,0,4.5,0.2,5.8,0.6c1.7,0.5,3.2,1.4,4.5,2.7c1.3,1.3,2.3,3,3,5
			c0.7,2,1.1,4.4,1.1,7.1c0,3.5-0.6,6.5-1.8,8.9c-1.2,2.4-2.7,4.2-4.6,5.2c-1.9,1-4.3,1.5-7.4,1.5H518.5z M522.4,190.9h6.3
			c2.5,0,4.5-0.4,5.8-1.1c1.3-0.7,2.3-1.9,3-3.4c0.9-2.1,1.4-4.6,1.4-7.6c0-3.1-0.5-5.6-1.5-7.4c-1-1.8-2.3-3-3.8-3.6
			c-1.1-0.4-2.7-0.6-5-0.6h-6.2V190.9z"/>
		<path class="st0" d="M547.3,179.4c0-5.3,1.4-9.4,4.1-12.2s6.1-4.3,10.1-4.3c2.6,0,5,0.6,7.1,1.9c2.2,1.3,3.9,3.1,5.1,5.5
			s1.9,5.3,1.9,8.6c0,4.6-1.2,8.3-3.6,11.2c-2.7,3.2-6.2,4.8-10.5,4.8c-4.4,0-7.9-1.6-10.6-4.9C548.5,187.2,547.3,183.6,547.3,179.4
			z M551.4,179.5c0,3.8,1,6.8,2.9,8.9s4.4,3.2,7.2,3.2c2.9,0,5.3-1.1,7.2-3.2c1.9-2.1,2.9-5.3,2.9-9.4c0-2.7-0.5-5.1-1.5-7.2
			c-0.8-1.6-1.9-2.9-3.5-3.9c-1.6-1-3.2-1.5-5.1-1.5c-3,0-5.4,1.1-7.3,3.2C552.3,171.8,551.4,175.1,551.4,179.5z"/>
		<path class="st0" d="M592.3,194.6v-31h21.4v3.7h-17.5v9.5h16.4v3.7h-16.4v10.6h18.2v3.7H592.3z"/>
		<path class="st0" d="M618.5,184.6l3.7-0.3c0.2,1.7,0.6,3,1.3,4c0.7,1,1.7,1.7,3,2.3c1.3,0.6,2.8,0.9,4.4,0.9
			c2.3,0,4.1-0.5,5.4-1.5c1.3-1,1.9-2.2,1.9-3.8c0-0.9-0.2-1.7-0.7-2.4c-0.5-0.7-1.2-1.2-2.1-1.7c-0.9-0.4-3-1.1-6.1-1.9
			c-2.8-0.7-4.8-1.4-6-2.1s-2.1-1.6-2.8-2.7c-0.7-1.1-1-2.4-1-3.8c0-2.5,0.9-4.6,2.8-6.2c1.9-1.6,4.4-2.4,7.6-2.4
			c2.2,0,4.1,0.4,5.8,1.1s2.9,1.8,3.8,3.2s1.4,3,1.5,4.9l-3.8,0.3c-0.2-2-0.9-3.5-2.1-4.5s-2.9-1.5-5.1-1.5c-2.2,0-3.9,0.4-5.1,1.3
			s-1.8,2-1.8,3.3c0,1.3,0.4,2.2,1.3,2.9c0.9,0.7,2.8,1.4,5.8,2.1c2.9,0.7,5,1.3,6.2,1.8c1.8,0.8,3.2,1.8,4.1,3.1
			c0.9,1.3,1.4,2.8,1.4,4.6c0,1.8-0.5,3.4-1.5,4.9c-1,1.5-2.3,2.6-4,3.3c-1.7,0.8-3.7,1.1-6,1.1c-3.7,0-6.6-0.9-8.8-2.8
			C619.7,190.4,618.5,187.8,618.5,184.6z"/>
		<path class="st0" d="M655,194.6v-27.4h-9.8v-3.7h23.5v3.7h-9.8v27.4H655z"/>
		<path class="st0" d="M666.4,194.6l11.4-31h4.2l12.1,31h-4.5l-3.4-9.4h-12.5l-3.2,9.4H666.4z M674.9,181.8H685l-3.1-8.6
			c-1-2.6-1.7-4.8-2.1-6.4c-0.4,2-0.9,4-1.6,5.9L674.9,181.8z"/>
		<path class="st0" d="M697.2,194.6v-31h10.2c2.5,0,4.5,0.2,5.8,0.6c1.7,0.5,3.2,1.4,4.5,2.7c1.3,1.3,2.3,3,3,5
			c0.7,2,1.1,4.4,1.1,7.1c0,3.5-0.6,6.5-1.8,8.9c-1.2,2.4-2.7,4.2-4.6,5.2c-1.9,1-4.3,1.5-7.4,1.5H697.2z M701.1,190.9h6.3
			c2.5,0,4.5-0.4,5.8-1.1c1.3-0.7,2.3-1.9,3-3.4c0.9-2.1,1.4-4.6,1.4-7.6c0-3.1-0.5-5.6-1.5-7.4c-1-1.8-2.3-3-3.8-3.6
			c-1.1-0.4-2.7-0.6-5-0.6h-6.2V190.9z"/>
		<path class="st0" d="M726,179.4c0-5.3,1.4-9.4,4.1-12.2s6.1-4.3,10.1-4.3c2.6,0,5,0.6,7.1,1.9c2.2,1.3,3.9,3.1,5.1,5.5
			s1.9,5.3,1.9,8.6c0,4.6-1.2,8.3-3.6,11.2c-2.7,3.2-6.2,4.8-10.5,4.8c-4.4,0-7.9-1.6-10.6-4.9C727.3,187.2,726,183.6,726,179.4z
			 M730.1,179.5c0,3.8,1,6.8,2.9,8.9s4.4,3.2,7.2,3.2c2.9,0,5.3-1.1,7.2-3.2c1.9-2.1,2.9-5.3,2.9-9.4c0-2.7-0.5-5.1-1.5-7.2
			c-0.8-1.6-1.9-2.9-3.5-3.9c-1.6-1-3.2-1.5-5.1-1.5c-3,0-5.4,1.1-7.3,3.2C731,171.8,730.1,175.1,730.1,179.5z"/>
		<path class="st0" d="M770.8,194.6v-31H781c2.5,0,4.5,0.2,5.8,0.6c1.7,0.5,3.2,1.4,4.5,2.7c1.3,1.3,2.3,3,3,5
			c0.7,2,1.1,4.4,1.1,7.1c0,3.5-0.6,6.5-1.8,8.9c-1.2,2.4-2.7,4.2-4.6,5.2c-1.9,1-4.3,1.5-7.4,1.5H770.8z M774.7,190.9h6.3
			c2.5,0,4.5-0.4,5.8-1.1c1.3-0.7,2.3-1.9,3-3.4c0.9-2.1,1.4-4.6,1.4-7.6c0-3.1-0.5-5.6-1.5-7.4c-1-1.8-2.3-3-3.8-3.6
			c-1.1-0.4-2.7-0.6-5-0.6h-6.2V190.9z"/>
		<path class="st0" d="M799.7,179.4c0-5.3,1.4-9.4,4.1-12.2s6.1-4.3,10.1-4.3c2.6,0,5,0.6,7.1,1.9c2.2,1.3,3.9,3.1,5.1,5.5
			s1.9,5.3,1.9,8.6c0,4.6-1.2,8.3-3.6,11.2c-2.7,3.2-6.2,4.8-10.5,4.8c-4.4,0-7.9-1.6-10.6-4.9C800.9,187.2,799.7,183.6,799.7,179.4
			z M803.7,179.5c0,3.8,1,6.8,2.9,8.9s4.4,3.2,7.2,3.2c2.9,0,5.3-1.1,7.2-3.2c1.9-2.1,2.9-5.3,2.9-9.4c0-2.7-0.5-5.1-1.5-7.2
			c-0.8-1.6-1.9-2.9-3.5-3.9c-1.6-1-3.2-1.5-5.1-1.5c-3,0-5.4,1.1-7.3,3.2C804.7,171.8,803.7,175.1,803.7,179.5z"/>
		<path class="st0" d="M839,194.6l11.4-31h4.2l12.1,31h-4.5l-3.4-9.4h-12.5l-3.2,9.4H839z M847.5,181.8h10.1l-3.1-8.6
			c-1-2.6-1.7-4.8-2.1-6.4c-0.4,2-0.9,4-1.6,5.9L847.5,181.8z"/>
		<path class="st0" d="M890.9,183.7l3.9,1c-0.9,3.5-2.4,6.1-4.6,7.8s-4.8,2.6-8,2.6c-2.7,0-5.1-0.6-7-1.7c-1.9-1.2-3.5-3-4.8-5.5
			c-1.2-2.5-1.9-5.5-1.9-9c0-3.4,0.6-6.3,1.9-8.7s2.9-4.2,5-5.4s4.5-1.8,7.1-1.8c2.9,0,5.3,0.8,7.4,2.3c2.1,1.5,3.5,3.8,4.3,6.7
			l-3.8,1c-1.3-4.3-4-6.5-7.9-6.5c-2,0-3.7,0.4-5.1,1.3c-1.4,0.9-2.6,2.2-3.5,4.1c-0.9,1.8-1.3,4.2-1.3,7c0,4.3,0.9,7.4,2.6,9.6
			c1.7,2.1,4.1,3.2,7,3.2c2.1,0,4-0.7,5.5-2C889.3,188.3,890.3,186.3,890.9,183.7z"/>
		<path class="st0" d="M899.7,194.6v-31h13.1c2.7,0,4.8,0.3,6.1,0.9s2.4,1.5,3.2,2.9c0.8,1.3,1.3,2.9,1.3,4.7c0,2.3-0.7,4.2-2.1,5.7
			c-1.4,1.5-3.5,2.4-6.2,2.8c1.1,0.6,1.9,1.1,2.5,1.7c1.2,1.2,2.2,2.5,3.1,4l5.2,8.4h-4.9l-4-6.5c-1.5-2.5-2.7-4.2-3.5-5.1
			c-0.8-0.9-1.5-1.5-2.3-1.8c-0.7-0.3-1.8-0.5-3.1-0.5h-4.5v13.8H899.7z M903.6,177.2h8.4c1.8,0,3.2-0.2,4.2-0.6
			c1-0.4,1.7-1,2.3-1.8s0.8-1.8,0.8-2.9c0-1.6-0.5-2.8-1.6-3.7s-2.7-1.3-4.8-1.3h-9.4V177.2z"/>
		<path class="st0" d="M929.7,194.6v-31h21.4v3.7h-17.5v9.5H950v3.7h-16.4v10.6h18.2v3.7H929.7z"/>
	</g>
</g>
</svg>
