<?xml version="1.0" encoding="utf-8"?>
<!-- Generator: Adobe Illustrator 27.7.0, SVG Export Plug-In . SVG Version: 6.00 Build 0)  -->
<svg version="1.1" id="Camada_1" xmlns="http://www.w3.org/2000/svg" xmlns:xlink="http://www.w3.org/1999/xlink" x="0px" y="0px"
	 viewBox="0 0 512 512" style="enable-background:new 0 0 512 512;" xml:space="preserve">
<style type="text/css">
	.st0{fill:#FFFFFF;}
</style>
<g id="logo" transform="translate(-11.187367,-19.190064)">
	<path id="path248" class="st0" d="M489.3,357.5c-11.3-1.5-37.9-6.9-38.9-7.8c-1.3-1.3,2.7-0.9,16.4,1.8c15.9,3.1,30.1,6.2,30.5,6.6
		S495.1,358.3,489.3,357.5L489.3,357.5z M37.1,354.5c0-1,19-11.9,30.9-17.7c9.3-4.5,12-5.1,12.3-3c0.1,0.9,0.4,1.1,1,0.8
		c6.1-2.5,12.8-4.7,18.1-6.1l6.6-1.6l0.9-3c1.7-5.6,9.1-29.9,10.3-33.8c0.6-2.1,3-9.9,5.2-17.3c2.3-7.4,5.3-17.6,6.9-22.6
		c1.5-5,4-13,5.4-17.8c10.4-34.2,11.3-37.1,10.7-38c-0.4-0.7-0.3-1,0.8-1.8c1.3-0.8,1.4-0.8,2.8,0c1.3,0.8,3.3,0.9,15.1,0.9
		c7.5,0,19.9-0.4,27.7-0.8c11.3-0.7,14.3-0.7,14.9-0.2c1.1,0.9,1,1.4-1,3.6c-1,1.1-1.8,2.4-1.9,2.9c0,0.5-0.2,0-0.4-1.1l-0.3-2
		l-24.9-0.4c-13.7-0.2-25.8-0.3-27-0.1c-3.6,0.5-3.1-0.5-9.6,20.6c-1.9,6.3-7.9,25.5-10.8,35c-2.5,8.1-2.5,8.3-0.8,14.6
		c3.6,12.8,5.1,18.6,5.1,18.9s-0.8-1.8-6.2-16.2c-1.5-4-2.5-5.2-2.5-3.1c0,1.2,10.4,31.1,10.8,31.1c0.2,0,0.5-0.7,0.7-1.6
		c0.2-0.9,4.2-17.1,8.9-36s8.5-35,8.5-35.7c-0.1-1.6-0.4-1.7-2.1-0.6c-0.7,0.4-1.5,0.7-1.8,0.5c-0.9-0.6-0.6-2.2,0.5-2.6
		c0.6-0.2,13.6-0.2,29,0c20.3,0.2,28.2,0.2,29-0.2c0.8-0.4,1.4-0.4,2.8,0.2c2.2,1.1,8.8,1.1,10.2,0.1c1.3-1,2.6-1,3,0
		c0.2,0.6,1.3,0.8,5.6,0.8c4.6,0,5.4-0.1,6.2-1c1.2-1.3,2.1-1.3,2.8,0c0.5,0.9,1.1,1,5.2,1s4.8-0.1,5.3-1c0.9-1.4,2.6-1.3,3.2,0.3
		c0.5,1.2,0.7,1.3,4.6,1.3c3.1,0,4.1-0.2,4.1-0.7c0-0.4,0.5-1.1,1.1-1.6c1-0.9,1.1-0.9,2,0.2c0.5,0.6,1,1.4,1.1,1.6
		c0.1,0.3,2,0.5,4.2,0.6l4,0.1l0.7-1.6c0.9-2,2.2-2.1,2.9-0.1l0.6,1.5h4.7c4.3,0,4.7-0.1,4.7-1c0-1.2,1.3-2.3,2.3-1.9
		c0.4,0.2,0.9,1,1.1,1.8l0.3,1.5h4.8h4.8l0.4-1.7c0.3-1.3,0.7-1.7,1.7-1.7s1.3,0.4,1.7,1.7l0.5,1.7h4.1h4.1l0.5-1.7
		c0.4-1.3,0.7-1.7,1.7-1.7s1.4,0.4,1.7,1.7l0.5,1.7h4h4v-1.5c0-2.8,3.1-2.6,3.5,0.2c0.1,1.2,0.4,1.3,2.8,1.6
		c1.5,0.2,3.8,0.3,5.2,0.2c2.5-0.2,2.5-0.2,2.8-1.9c0.2-1.5,0.5-1.8,1.5-1.8s1.4,0.3,1.7,1.9l0.5,1.9h4.7c4.6,0,4.7,0,4.7-1.2
		c0-0.6,0.3-1.6,0.7-2.2c1-1.3,2.4-0.5,3.1,1.7l0.5,1.6h4.2c4.1,0,4.2,0,4.2-1.2s1.2-2.8,2-2.8c0.6,0,1.4,1.1,1.7,2.7l0.3,1.4h4.7
		h4.7l0.5-1.7c0.7-2.5,2.5-2.5,3.3-0.2l0.6,1.8h5.5h5.5l0.2-1.4c0.2-1.9,2.4-2,3.3-0.1c0.6,1.2,0.9,1.3,6.1,1.5
		c5.8,0.3,6.8,0.2,6.8-0.6c0-0.7-6.2-14.3-6.8-15c-0.8-0.9-100.1-2.3-179-2.6c-58.9-0.2-65.1-0.2-66.2,0.6c-0.7,0.4-1.6,0.8-2,0.8
		s-1.2,1.2-1.8,2.7s-0.9,2-0.8,1.2c0.2-0.8,0.4-2.1,0.6-2.9c0.2-1,0-1.8-0.6-2.5c-0.8-0.9-0.9-1.1,0-2.3c0.8-1.2,1.1-1.3,2.7-1
		c4.7,0.9,50.1,1.1,145.1,0.9l103-0.3l1,1.1c0.8,0.9,0.9,1.3,0.4,2.4c-0.5,1.1-0.2,2.3,2.1,8.8c2.1,5.9,2.9,7.5,3.7,7.7
		c2.3,0.4,1.6,2.7-1.1,3.3c-0.7,0.2-1.2,0.5-1.2,0.7c0,0.6,1.6,5.5,4.7,14.1c1.5,4.2,3.4,10.1,4.1,13c2.3,9,3.9,13.2,4.9,13.5
		c0.8,0.2,1,0.7,1,3.2s-0.2,3.1-1.1,3.6c-0.8,0.5-1.2,0.4-1.5-0.1c-0.6-0.9-0.6-4.4,0-5.5c0.3-0.6-0.3-3-2.2-8.5
		c-3.3-9.4-5-13.3-9.6-22.6l-3.7-7.4l-3.5-0.2c-3.4-0.1-3.5-0.1-3.2,1c0.2,0.6,1.9,9.5,3.9,19.7c5.3,27.1,6,30.6,6.3,30.9
		c0.2,0.2,3.1,0.5,6.5,0.7c6,0.4,21.1,2.5,25.8,3.5c1.6,0.3-0.6,0.4-7.1,0.2l-9.4-0.3l-3.1,2.7c-4.7,4-8.3,8.5-8.3,10.3
		c0,0.8,0.7,5.7,1.5,10.7c1.7,9.8,1.8,12.4,0.3,6.7c-0.5-1.9-1.2-4.5-1.6-5.8c-0.4-1.3-1.2-4-1.8-6c-0.7-2.4-1.3-3.6-1.6-3.3
		c-0.4,0.4,0.9,10.5,2.4,17.8c0.2,1,0.1,1.7-0.2,1.7c-0.3,0-0.8-1.2-1.1-2.7c-0.8-4-3.2-14.3-3.4-15.1c-0.2-0.5-1.3,0.3-3.6,2.6
		c-6.5,6.3-14.4,13.3-14.7,13c-0.2-0.2,3.5-4.2,8-9c9.6-10.2,10-10.7,8.6-12.2c-1.2-1.2-1.3-2-0.3-2c0.4,0,1.1-0.1,1.6-0.3
		c0.6-0.2,0.9,0,1.1,0.8c0.2,0.6,0.5,1.1,0.7,1.1s0.2-0.8-0.1-1.8c-0.8-2.8,0.8-4.2,2.6-2.5c0.8,0.7,1.1,0.5,3.8-2.8
		c1.6-2,2.8-3.7,2.7-3.8c-0.1-0.1-5.9-0.5-12.9-1s-17.3-1.2-22.9-1.6s-13-0.7-16.5-0.7c-4.2,0-6.2-0.2-5.8-0.5
		c0.6-0.6,35.9-0.8,42.8-0.3l4.7,0.4l-0.4-2c-0.4-2-1-4.3-3.7-13.2c-0.9-2.8-3.2-12.2-5.1-20.8s-3.7-15.9-4-16.2
		c-0.2-0.2-3-0.4-6-0.3l-5.6,0.1l1.2,8.4c4.7,33.1,5.7,41.2,4.8,38.7c-2.9-8.5-3.3-10.2-6.8-31.3l-2.6-15.8l-5-0.4
		c-2.7-0.2-5.1-0.3-5.2-0.2c-0.3,0.3,0.3,6,3.6,36.7c0.7,6.7,1.2,12.2,1.1,12.3s-0.5-0.9-0.9-2.2c-0.4-1.3-1.1-3.9-1.6-5.7
		c-0.5-1.8-2-11-3.3-20.3c-1.3-9.4-2.4-17.9-2.6-19l-0.3-1.9l-4.6,0.1l-4.6,0.1l0.1,1.5c0.1,0.8,0.4,4.7,0.6,8.6
		c0.3,3.9,1.1,14.3,1.8,23.1c0.7,8.8,1.2,16.1,1.1,16.2s-0.9-2.8-1.8-6.4c-1.2-4.9-2-10.3-3.2-21.8c-0.9-8.4-1.7-16.7-1.9-18.5
		l-0.3-3.3h-4.9h-5.1l0.1,2.8c0.1,3,1,19.1,1.6,29.1c0.2,3.3,0.2,5.8,0,5.6c-0.4-0.4-3.7-22.9-4.6-31.5l-0.6-6l-5.5-0.1l-5.5-0.1
		l0.3,10.1c0.2,5.5,0.4,14.2,0.6,19.2c0.5,14.5-0.4,11-2.6-10.7c-0.4-4.2-1-10-1.3-13c-0.3-2.9-0.7-5.4-0.8-5.6
		c-0.1-0.1-1.9-0.3-4-0.4l-3.7-0.2l-0.3,1.7c-0.2,0.9-0.2,9.8-0.2,19.8l0.1,18.1l16.8,0.3c10.7,0.2,17.1,0.2,17.7-0.2
		c2.4-1.3,4.3,1.3,2.4,3.3l-1.1,1.2l3.7,6c2,3.3,3.7,6.3,3.7,6.6c0,0.8-7.9,12.3-8.8,12.7c-1.6,0.7-1-0.5,3-5.9
		c2.3-3.1,4.1-5.7,4-5.8s-23.9-0.3-52.9-0.5c-39.7-0.3-52.8-0.2-53.1,0.2c-0.2,0.3,1.6,3.2,4.3,6.8c2.6,3.4,4.9,6.7,5.1,7.4
		c0.4,1.1,0.4,1.2-0.8,1c-0.7-0.1-1.4,0-1.5,0.3c-0.3,0.9-2.1-1.6-4.7-6.6c-3.6-6.8-4.3-7.9-5.6-8.2c-1.7-0.4-1.7-3,0-4.7
		c1.5-1.5,5.3-10.1,5.8-13l0.4-2l8.1,0.2l8.1,0.2l-0.3-7.6c-0.3-5.9-0.1-9.7,0.7-17.5c0.6-5.5,1-11,1-12.3v-2.4h-4.3h-4.3l-0.3,2.7
		c-0.2,1.5-1.1,8.6-2.1,15.9l-1.7,13.2l0.3-15.9l0.3-15.9h-4.4c-4.9,0-4.6-0.3-5.4,5.1c-0.3,1.8-1.4,9.4-2.6,16.8
		c-2.1,13.6-2.4,15.6-3.8,24.4c-0.4,2.7-1,6.5-1.4,8.6c-0.3,2.1-0.9,5.6-1.3,7.8c-1.5,8.6-1.8,8.3,11.8,13.8
		c3.9,1.6,7.4,3.2,7.7,3.5c0.3,0.3,1.4,2.2,2.5,4.3c1.9,3.7,1.9,3.7,4,3.7c1.2,0,17.3,0.2,35.9,0.5c18.6,0.3,34.2,0.4,34.6,0.2
		c0.4-0.1,1.3-1,2-1.9l1.2-1.6l-0.3,2.2c-0.3,2-0.2,2.2,0.8,2.2c4.8,0,43.6,3.4,45.5,4c1.7,0.5,0.6,1.7-2,2.1c-1.9,0.3-2,0.4-1,0.7
		c0.8,0.3,1.1,0.6,0.9,1.3c-0.2,0.8,0.2,1.1,2.4,1.7c4.4,1.3,26.9,6.8,26.9,6.6c0-0.1-0.4-1.7-0.8-3.6c-0.7-3.1-0.7-3.5,0-4.6
		c0.9-1.4,2.8-1.6,3.9-0.3c0.4,0.5,1.3,3.1,2,5.7l1.2,4.8l2.5,0.9c1.4,0.5,6.9,2.4,12.2,4.2c10.8,3.8,26.6,9.7,27.7,10.5
		c0.6,0.4,0.6,0.4-0.2,0.2c-3.2-1-35.7-5.9-39.3-5.9c-1,0-1.2,0.2-1.2,2.1c0,3.6-2.9,3.2-4-0.5c-0.3-1.2-0.9-2.2-1.2-2.3
		c-0.6-0.2-18.3-1.8-31.1-2.8c-12.2-1-49.6-2.6-73-3.1c-25.8-0.6-104-0.3-132,0.5c-37.8,1.1-66.7,2.3-94.9,3.8l-12,0.6l-7.2,3.2
		c-6.6,2.9-8.8,3.4-8.8,2.2c0-0.3,2.9-2.5,6.5-4.9c3.6-2.5,6.6-4.6,6.7-4.6c0.1-0.1,0.1-0.3-0.1-0.4c-0.3-0.3-6.7,2.8-22.8,11.2
		C40.9,353.6,37.1,355.3,37.1,354.5L37.1,354.5z M220.4,325.4c0.1-0.5,0.8-4.6,1.5-9c0.7-4.5,2-12.6,2.9-18.1
		c2.3-14.1,2.5-12.6-2.1-14.6c-2.8-1.2-4.6-1.7-6.7-1.7c-2.8,0-2.9,0.1-3.2,1.4c-0.2,0.8-0.4,1.9-0.5,2.4c-0.1,0.6-1.7,7.9-3.5,16.3
		s-3.7,17.1-4.2,19.4c-0.5,2.3-0.8,4.3-0.7,4.5c0.1,0.1,3.9,0.3,8.3,0.3C219.3,326.3,220.1,326.2,220.4,325.4L220.4,325.4z
		 M156.6,324.3c0.2-0.7,1.4-5.6,2.7-10.9s3.2-13.5,4.4-18.1c1.1-4.7,2.1-8.8,2.1-9.2c0-0.5-1.1-0.6-5.7-0.4l-5.7,0.3l-0.9,3.3
		c-0.5,1.8-2.3,8.6-4,15s-3.6,13.3-4.1,15.3s-1.1,4.1-1.3,4.7c-0.3,1.1-0.2,1.1,4.6,1.3C156.3,325.7,156.2,325.7,156.6,324.3
		L156.6,324.3z M170.8,324.7c0.3-0.6,1.3-4.7,2.3-9c1-4.3,2.3-9.6,2.8-11.7c0.5-2.1,1.7-6.9,2.5-10.7c0.8-3.8,1.7-7.3,1.8-7.8
		c0.3-0.9-0.1-0.9-5.7-0.6c-3.3,0.2-6.2,0.5-6.4,0.7c-0.4,0.3-1.3,3.8-5.8,20.9c-3.4,12.9-4.7,18.7-4.4,19.1c0.2,0.2,3,0.3,6.3,0.3
		C170.1,325.8,170.4,325.7,170.8,324.7L170.8,324.7z M188.1,322.9c0.3-1.6,1.4-6.8,2.4-11.6c1-4.8,2.4-11.4,3.1-14.8
		c0.7-3.4,1.6-7.6,2-9.4c0.4-1.8,0.6-3.4,0.5-3.6c-0.2-0.4-12.8,0.7-13.2,1.1c-0.2,0.2-1.2,3.6-2.3,7.6s-2.7,10-3.6,13.4
		c-0.9,3.4-2.1,7.8-2.6,9.9c-0.5,2.1-1.3,4.9-1.7,6.3c-1.2,4.1-1.6,3.8,7.1,3.8h7.8L188.1,322.9z M203.1,323.4
		c0.2-1.3,0.9-5.2,1.6-8.5c0.7-3.4,2-10.5,3-15.8c1.6-8.5,2.1-10.9,3.1-16l0.3-1.2l-4.7,0.3c-8.6,0.6-7.8,0.1-9.3,6.6
		c-4.5,19.3-8.1,34.3-8.3,35.6l-0.2,1.4h7.1h7.1L203.1,323.4z M143.1,324.4c0.3-0.8,1.3-5.2,6-24.8c1.1-4.8,2.4-9.8,2.8-11.3
		c0.4-1.4,0.7-2.8,0.7-3c0-0.4-9.7,0.1-10,0.5c-0.2,0.2-4.5,15-5.7,19.5c-0.3,1.2-0.8,2.1-1,1.9c-0.4-0.2-4,12-4.9,16.4l-0.3,1.7
		h6.1C142.1,325.3,142.8,325.2,143.1,324.4L143.1,324.4z M235.1,317.9c2.2-0.6,3-1.1,3.2-1.9c0.2-1.1,0.8-5.3,1.8-14.1
		c0.3-2.4,0.6-4.8,0.8-5.4c0.2-0.9-0.3-1.6-2.7-3.5c-4.6-3.7-9-6.5-9.3-6c-0.2,0.2-0.7,2.5-1.2,5c-2,11.3-4.5,24.2-5.2,27.6
		c-0.4,2-0.8,3.9-0.8,4.2c0,0.3,2.3-0.8,5.2-2.3S233.4,318.4,235.1,317.9L235.1,317.9z M385,321.2c0-0.3-0.3-0.5-0.7-0.5
		c-0.4,0-1.4-0.1-2.3-0.3c-1-0.2-1.6-0.1-1.6,0.2c0,0.5,1.2,0.8,3.7,1C384.6,321.7,385,321.5,385,321.2L385,321.2z M252.1,315.2
		c-0.1-1.9-0.8-4.2-1.9-6.5l-1.7-3.6l-0.4,1.8c-0.2,1-0.6,3.6-0.8,5.9l-0.3,4.1l1.7,0.5C252.2,318.6,252.4,318.5,252.1,315.2
		L252.1,315.2z M338.4,316.9c0.5-0.7,0.8-1.3,0.8-1.4s-5.5-0.2-12.3-0.3c-6.7-0.1-22.6-0.3-35.2-0.5c-12.6-0.2-23-0.3-23.2-0.2
		c-0.1,0.1-0.1,0.3,0,0.4c0.1,0.1,13.6,0.5,30,0.8c16.4,0.3,29.9,0.7,30,0.9c0.3,0.3-36.6-0.2-50.2-0.6c-7.8-0.3-8.8-0.2-8.8,0.5
		c0,0.4,0.1,0.8,0.1,0.8c0.1,0,9.6,0.2,21.2,0.3c11.6,0.2,21.2,0.4,21.3,0.5s5.9,0.2,12.8,0.2h12.6L338.4,316.9z M246.3,311.2
		c0.2-3,0.5-6.2,0.6-7c0.2-1.3-0.1-2-1.8-4.2c-2.4-3-3.1-3.3-3.1-1.2c0,0.8-0.6,4.8-1.3,9c-0.7,4.2-1.3,7.9-1.3,8.2
		c0,0.4,1,0.6,3.2,0.6h3.2L246.3,311.2z M241.7,290.3c0.5-4.5,1.2-10.1,2.6-20.7c1-7.8,3.5-27.1,5.1-39.7c0.1-1.1,0.4-2.7,0.5-3.4
		l0.2-1.4h-5h-5l-0.3,1.4c-0.1,0.8-0.7,3.8-1.3,6.7c-0.5,2.9-1.6,8.5-2.3,12.5c-0.7,3.9-2.1,11.5-3.1,16.8
		c-2.1,11.5-2.6,14.2-3.1,16.5l-0.3,1.7l4.1-0.2c3-0.1,4.3-0.4,5.1-1.1c0.7-0.6,1.4-0.8,2.1-0.6c1.5,0.5,1.3,2.1-0.4,3
		c-1.3,0.7-1.5,0.7-2.2,0c-0.6-0.6-1.6-0.7-4.9-0.4c-3.5,0.3-4.2,0.5-4.2,1.2c0,0.5-0.1,1.2-0.3,1.6c-0.2,0.5,1.2,1.6,4.2,3.6
		c2.5,1.6,5.2,3.4,6,4.1c0.8,0.7,1.7,1.3,1.8,1.3C241.3,293.2,241.5,291.9,241.7,290.3L241.7,290.3z M152.6,283.2
		c0.6-0.6,6.6-24.2,9.1-35.7c0.2-1,1.4-6.3,2.7-11.9c1.3-5.6,2.3-10.5,2.3-11.1c0-1.5-3.3-1.3-4.8,0.3c-0.6,0.7-1.5,1.3-1.9,1.3
		c-0.5,0-3.1,8.4-8.8,28.4c-4.4,15.6-8.2,28.7-8.3,29.1c-0.2,0.6,0.6,0.7,4.4,0.5C149.9,283.9,152.3,283.5,152.6,283.2L152.6,283.2z
		 M227.3,282.5c0-0.8-0.4-1-2.3-1c-2.8,0-2.9,0.6-0.4,1.6C226.8,284,227.3,283.9,227.3,282.5z M162.5,282.7l4.2-0.3l0.6-2.1
		c0.6-2.2,3.3-13.5,7.7-31.6c1.5-6.2,3.4-14.2,4.3-17.8l1.6-6.6l-4.8-0.1c-2.6-0.1-4.9-0.1-5,0c-0.2,0.2-1.4,4.7-10.4,38.3
		c-2,7.6-4.1,15.3-4.6,17.2l-0.9,3.4h1.6C157.7,283.1,160.2,282.9,162.5,282.7L162.5,282.7z M358.2,279.1c-3.5-6.4-4.6-7.9-5.2-8.1
		c-1-0.3-0.7,0.5,1.7,5c1.3,2.3,2.3,4.4,2.3,4.5c0,0.2-3.8,0.2-8.5,0.1c-61.9-1.2-92.7-2-93-2.3c-0.2-0.2,0.6-2.8,1.8-5.8
		c1.9-4.9,2.3-6.8,1.2-5.5c-0.5,0.6-5.7,12.8-5.7,13.4c0,0.3,0.6,0.6,1.4,0.8c1.3,0.4,45.8,0.9,88,1.2l18,0.1L358.2,279.1z
		 M181.2,281c0.3-0.3,0.1-0.5-0.5-0.5c-1,0-1,0,0-0.5s1.3-1.4,6.6-23.5c4.9-20.4,7.3-30.3,7.7-31.5c0.3-0.8-0.2-0.9-5.1-0.9h-5.3
		l-0.5,1.7c-0.3,0.9-1.2,4.4-2.1,7.8c-0.9,3.4-2.4,8.9-3.3,12.2c-0.9,3.4-2.3,8.4-3,11.2c-0.7,2.8-2.5,9.3-3.9,14.5
		c-1.4,5.2-2.5,9.7-2.5,10.1c0,0.6,1,0.7,5.7,0.4C178.2,281.6,181,281.3,181.2,281L181.2,281z M191.2,281h5.6v-1.3v-1.3l-6,0.4
		c-3.3,0.2-6.1,0.5-6.4,0.6c-0.2,0.1-0.4,0.7-0.4,1.3c0,0.7,0.2,1,0.8,0.7C185.3,281.2,188.2,281,191.2,281L191.2,281z M209.5,280.1
		c0-0.5-9-1.8-9.7-1.3c-0.3,0.2-0.5,0.6-0.5,1c0,0.6,1,0.7,5.1,0.7C207.2,280.5,209.5,280.3,209.5,280.1L209.5,280.1z M227.5,280.1
		c0.3-0.4,0.8-3.5,5.4-32.2c0.6-3.5,1.6-10,2.3-14.3c0.7-4.4,1.3-8.1,1.3-8.3S234,225,231,225h-5.5l-0.6,2.9
		c-0.3,1.6-1.2,5.6-1.9,8.8c-0.7,3.2-3.1,14.1-5.3,24.2c-2.2,10.1-3.9,18.4-3.8,18.5C214.7,280.3,227,281,227.5,280.1z M193,277.8
		l4.6-0.6l1.9-9.2c1-5,2.7-13,3.7-17.8c3.7-17.9,4.8-22.9,5.1-24.2l0.3-1.3l-4.7-0.4c-3.4-0.3-4.8-0.2-5.1,0.2
		c-0.2,0.3-1.5,4.8-2.8,9.8c-1.3,5.1-3.1,12-4.1,15.3c-0.9,3.4-2.3,8.5-3.1,11.4s-2.1,8-3.1,11.3l-1.7,6h2.1
		C187.4,278.4,190.4,278.1,193,277.8L193,277.8z M211.7,277.6c0.1-0.5,1.1-5.1,2-10.3c1-5.2,3.2-16.6,4.8-25.3
		c1.7-8.7,3.1-16.2,3.1-16.7c0-0.6-0.9-0.8-4.8-0.8H212l-0.5,1.9c-0.3,1-1.7,7.1-3.1,13.4c-1.5,6.3-4,17.3-5.7,24.3
		s-2.9,13-2.8,13.1c0.3,0.3,6.9,1.1,9.4,1.2C211,278.5,211.5,278.3,211.7,277.6L211.7,277.6z M351.9,268.8c0-0.6-0.3-1-0.8-1
		c-0.6,0-0.7,0.2-0.2,1c0.3,0.6,0.7,1,0.8,1C351.8,269.8,351.9,269.4,351.9,268.8z M303.6,264.4c0-0.8-0.2-6.1-0.5-11.8
		s-0.6-14-0.8-18.4l-0.3-8h-5c-2.8,0-5,0.2-5,0.5s-0.2,3.4-0.5,7s-0.9,11-1.3,16.4c-0.4,5.5-0.9,11.1-1,12.5s-0.1,2.8,0.1,2.9
		c0.2,0.2,3.5,0.3,7.3,0.3h7L303.6,264.4L303.6,264.4z M316.7,255.2c-0.5-5.8-1.1-14.6-1.3-19.5l-0.4-8.9l-4.6-0.1l-4.6-0.1
		l-0.3,7.8c-0.2,4.3-0.5,13.1-0.7,19.6l-0.3,11.8h6.6h6.6L316.7,255.2z M288.1,245.7v-19.6h-4.7c-3.3,0-4.8,0.2-4.9,0.6
		c-0.1,0.3-0.4,2.7-0.7,5.2c-0.3,2.5-1.3,10.9-2.3,18.7c-1,7.8-1.8,14.2-1.8,14.4c0,0.1,3.3,0.3,7.3,0.3h7.3L288.1,245.7
		L288.1,245.7z M235.9,222.5c-0.9-0.5-3.5-0.6-6.8-0.2c-4,0.5-2.6,1,2.6,0.8C234.9,223,236.4,222.8,235.9,222.5L235.9,222.5z
		 M274.6,223.2c0-0.2-1.2-0.3-2.7-0.2c-4.5,0.2-4.9,0.5-1,0.5C272.9,223.5,274.6,223.4,274.6,223.2z M195.6,222.4
		c-0.2-0.5-1.7-0.6-5.2-0.6s-5.1,0.2-5.2,0.6c-0.2,0.5,1.1,0.6,5.2,0.6C194.5,223,195.8,222.9,195.6,222.4z M208.7,222.5
		c0.2-0.3-1.4-0.5-4.3-0.5c-2.7,0-4.6,0.2-4.6,0.5s1.8,0.5,4.3,0.5C206.5,223,208.6,222.8,208.7,222.5z M222.2,222.5
		c0-0.3-1.9-0.5-4.5-0.5c-2.5,0-4.7,0.2-4.9,0.5c-0.2,0.3,1.4,0.5,4.5,0.5C220.3,223,222.2,222.8,222.2,222.5z M248,222.7
		c-1.3-0.1-3.6-0.1-5.1,0s-0.4,0.2,2.4,0.2C248.2,222.9,249.4,222.8,248,222.7L248,222.7z M260.8,222.7c-1-0.1-2.9-0.1-4.1,0
		c-1.2,0.1-0.3,0.2,1.9,0.2C260.8,222.9,261.8,222.8,260.8,222.7L260.8,222.7z M167.5,222c0.2-0.3-0.7-0.5-2.3-0.5s-2.5,0.2-2.3,0.5
		s1.2,0.5,2.3,0.5S167.4,222.3,167.5,222z M181,222c0-0.3-1.9-0.5-4.6-0.5s-4.6,0.2-4.6,0.5s1.9,0.5,4.6,0.5
		C179.1,222.5,181,222.3,181,222z M290,311.7c3.6-0.1,9.3-0.1,12.7,0c3.4,0.1,0.5,0.2-6.5,0.2C289.2,311.8,286.4,311.8,290,311.7
		L290,311.7z M261.5,259.4c0-0.8,0.1-1.1,0.3-0.6c0.1,0.5,0.1,1.2,0,1.5C261.6,260.7,261.5,260.3,261.5,259.4L261.5,259.4z
		 M153.5,216.9c0-0.3,0.2-0.5,0.5-0.5s0.4,0.2,0.2,0.5s-0.4,0.5-0.5,0.5C153.6,217.5,153.5,217.2,153.5,216.9z"/>
</g>
</svg>
